<!-- icon666.com - MILLIONS vector ICONS FREE --><svg viewBox="0 0 49 60" xmlns="http://www.w3.org/2000/svg"><path id="Shape" d="m20 55c0 2.7614237 2.2385763 5 5 5s5-2.2385763 5-5v-30.024l10.3 11.385c1.39389 1.5163006 3.5736314 2.0252663 5.4948822 1.2830452 1.9212509-.7422212 3.1926753-2.5844476 3.2051178-4.6440452.011-6.564.021-6.1-.069-6.346.2102121-1.4548744-.2380149-2.9278295-1.223-4.019-20.698-22.635-19.231-22.09-21.832-22.554-1.6524927-.2975461-3.3437866.2564466-4.5 1.474-.1.087.628-.7-19.084 21.083-.79921839.8906904-1.24924263 2.0404366-1.267 3.237-.035.272-.025-1.075-.025 7.125.01307645 2.0592567 1.28441794 3.9009515 3.20528023 4.6432433 1.92086228.7422919 4.10028647.2340998 5.49471977-1.2812433.1-.089-.143.16 10.3-11.386zm5 3c-1.6568542 0-3-1.3431458-3-3v-3.026c1.766197 1.3676345 4.233803 1.3676345 6 0v3.026c0 1.6568542-1.3431458 3-3 3zm15-24.949-10-11.051v-4.029l10 11.053zm2 2.163v-4.651c1.6527973.7171163 3.5637923.4877969 5-.6v3.037c-.008645 1.1790559-.7071511 2.2437184-1.7852719 2.7211104-1.0781209.4773919-2.3359164.2789797-3.2147281-.5071104zm-38.225-11.235c23.544-26.029 17.496-19.346 19.016-21.012.6970156-.74933046 1.726004-1.0948357 2.734-.918 1.982.355 1.286.917 20.7 21.934 1.1106446 1.229662 1.014162 3.1268553-.2155 4.2375-1.229662 1.1106446-3.1268554 1.014162-4.2375-.2155l-12.033-13.3c-.2772946-.3069103-.7149235-.4114288-1.1009792-.2629458-.3860556.1484829-.6408554.5193202-.6410208.9329458v32.625c0 1.6568542-1.3431458 3-3 3s-3-1.3431458-3-3v-32.625c-.0001654-.4136256-.2549652-.7844629-.6410208-.9329458-.3860557-.148483-.8236846-.0439645-1.1009792.2629458l-12.033 13.3c-1.13228482 1.1847408-2.99313368 1.2778272-4.238.212-1.22496746-1.1140133-1.31841343-3.008865-.209-4.238zm-.775 9.011v-3.024c1.42937633 1.1038925 3.34858751 1.3361171 5 .605v4.64c-.88139386.7813972-2.13795321.9760094-3.21442491.4978406-1.07647169-.4781687-1.77447558-1.5409979-1.78557509-2.7188406zm7 .061v-4.027l10-11.053v4.029z" transform="translate(-1)"></path></svg>