<svg viewBox="0 0 49 60" xmlns="http://www.w3.org/2000/svg"><path d="M19 55a5 5 0 0 0 10 0v-30.02l10.3 11.38a5.01 5.01 0 0 0 8.7-3.36c.01-6.56.02-6.1-.07-6.35a4.94 4.94 0 0 0-1.22-4.02c-20.7-22.63-19.23-22.09-21.83-22.55a4.99 4.99 0 0 0-4.5 1.47c-.1.1.62-.7-19.09 21.09a4.96 4.96 0 0 0-1.27 3.23c-.03.28-.02-1.07-.02 7.13a5.01 5.01 0 0 0 8.7 3.36c.1-.09-.14.16 10.3-11.38zm5 3a3 3 0 0 1-3-3v-3.03a4.9 4.9 0 0 0 6 0v3.03a3 3 0 0 1-3 3zm15-24.95-10-11.05v-4.03l10 11.05zm2 2.16v-4.65a5 5 0 0 0 5-.6v3.04a3 3 0 0 1-5 2.21zm-38.23-11.23c23.55-26.03 17.5-19.35 19.02-21.01.7-.75 1.73-1.1 2.73-.92 1.99.35 1.3.92 20.7 21.93a3 3 0 0 1-4.45 4.03l-12.03-13.3a1 1 0 0 0-1.74.67v32.62a3 3 0 0 1-6 0v-32.63a1 1 0 0 0-1.75-.66l-12.03 13.3a3.09 3.09 0 0 1-4.24.2 3 3 0 0 1-.2-4.23zm-.77 9.01v-3.02a4.92 4.92 0 0 0 5 .6v4.64a3 3 0 0 1-5-2.22zm7 .06v-4.03l10-11.05v4.03z"/></svg>