<svg xmlns="http://www.w3.org/2000/svg" viewBox="0 0 24 24" style="enable-background:new 0 0 24 24" xml:space="preserve"><path d="M12 2.16a83 83 0 0 1 4.85.07c1.3.06 2.65.36 3.6 1.31.97.96 1.26 2.3 1.32 3.61a83 83 0 0 1 .07 4.85 83 83 0 0 1-.07 4.85c-.06 1.3-.37 2.66-1.31 3.6-.97.97-2.3 1.26-3.61 1.32-1.27.06-1.65.07-4.85.07s-3.58-.01-4.85-.07c-1.29-.06-2.67-.37-3.6-1.31-.96-.96-1.26-2.3-1.32-3.61a83 83 0 0 1-.07-4.85 83 83 0 0 1 .07-4.85c.06-1.3.37-2.66 1.31-3.6.96-.97 2.3-1.26 3.61-1.32a83 83 0 0 1 4.85-.07m0-2.16c-3.26 0-3.67.01-4.95.07-1.85.09-3.7.6-5.04 1.94-1.34 1.35-1.85 3.19-1.94 5.04a85.62 85.62 0 0 0-.07 4.95c0 3.26.01 3.67.07 4.95.09 1.85.6 3.7 1.94 5.04 1.35 1.34 3.19 1.85 5.04 1.94 1.28.06 1.7.07 4.95.07 3.26 0 3.67-.01 4.95-.07 1.85-.09 3.7-.6 5.04-1.94 1.34-1.35 1.85-3.19 1.94-5.04.06-1.28.07-1.7.07-4.95 0-3.26-.01-3.67-.07-4.95-.09-1.85-.6-3.7-1.94-5.04-1.35-1.34-3.2-1.85-5.04-1.94a85.62 85.62 0 0 0-4.95-.07z"/><path d="M12 5.84a6.16 6.16 0 1 0 0 12.32 6.16 6.16 0 0 0 0-12.32zm0 10.16a4 4 0 1 1 0-8 4 4 0 0 1 0 8z"/><circle cx="18.406" cy="5.594" r="1.44"/></svg>