<svg xmlns="http://www.w3.org/2000/svg" viewBox="0 0 24 24"><path d="M19.33 14.67a4.66 4.66 0 0 0-3.84 2.02l-6.5-2.94a4.57 4.57 0 0 0 0-3.49l6.5-2.95a4.66 4.66 0 1 0-.83-2.64 4.63 4.63 0 0 0 .08.78l-6.9 3.14a4.67 4.67 0 1 0-.02 6.83l6.93 3.13a4.74 4.74 0 0 0-.08.78 4.67 4.67 0 1 0 4.66-4.66Zm0-12.67a2.67 2.67 0 1 1-2.66 2.67 2.67 2.67 0 0 1 2.66-2.67Zm-14.66 12.67a2.67 2.67 0 1 1 2.66-2.67 2.67 2.67 0 0 1-2.66 2.67Zm14.66 7.33a2.67 2.67 0 1 1 2.67-2.67 2.67 2.67 0 0 1-2.67 2.67Z" data-name="01 align center"/></svg>