<svg xmlns="http://www.w3.org/2000/svg" viewBox="0 0 24 24" style="enable-background:new 0 0 24 24" xml:space="preserve"><path d="M22.32 1.68c-1.69-1.68-4.4-1.68-9.82-1.68h-1c-5.42 0-8.13 0-9.82 1.68-1.68 1.69-1.68 4.4-1.68 9.82v1c0 5.42 0 8.13 1.68 9.82s4.4 1.68 9.82 1.68h1c5.42 0 8.13 0 9.82-1.68 1.68-1.69 1.68-4.4 1.68-9.82v-1c0-5.42 0-8.13-1.68-9.82zm-2.82 15.32h-1.75c-.66 0-.86-.53-2.05-1.72-1.04-1-1.48-1.13-1.74-1.13-.35 0-.46.1-.46.6v1.57c0 .43-.14.68-1.25.68-1.85 0-3.89-1.13-5.34-3.2-2.17-3.04-2.76-5.34-2.76-5.8 0-.26.1-.5.6-.5h1.75c.45 0 .62.2.78.68.86 2.5 2.3 4.67 2.9 4.67.22 0 .32-.1.32-.66v-2.58c-.06-1.19-.7-1.29-.7-1.7 0-.2.17-.41.45-.41h2.75c.37 0 .5.2.5.64v3.47c0 .37.16.5.27.5.23 0 .41-.13.82-.54a14.48 14.48 0 0 0 2.15-3.58c.11-.26.32-.5.76-.5h1.75c.53 0 .64.28.53.65-.22 1.02-2.35 4.03-2.35 4.03-.19.3-.26.44 0 .77.18.26.8.78 1.2 1.27a7.52 7.52 0 0 1 1.48 2.05c.14.49-.1.74-.6.74z"/></svg>